<svg id="date" xmlns="http://www.w3.org/2000/svg" width="35.831" height="35.831" viewBox="0 0 35.831 35.831">
  <defs>
    <style>
      .cls-1 {
        fill: #040404;
      }
    </style>
  </defs>
  <g id="Group_4" data-name="Group 4" transform="translate(7.678)">
    <g id="Group_3" data-name="Group 3">
      <path id="Path_1" data-name="Path 1" class="cls-1" d="M103.68,0a1.28,1.28,0,0,0-1.28,1.28V3.839h2.559V1.28A1.28,1.28,0,0,0,103.68,0Z" transform="translate(-102.4)"/>
    </g>
  </g>
  <g id="Group_6" data-name="Group 6" transform="translate(25.593)">
    <g id="Group_5" data-name="Group 5">
      <path id="Path_2" data-name="Path 2" class="cls-1" d="M342.613,0a1.28,1.28,0,0,0-1.28,1.28V3.839h2.559V1.28A1.28,1.28,0,0,0,342.613,0Z" transform="translate(-341.333)"/>
    </g>
  </g>
  <g id="Group_8" data-name="Group 8" transform="translate(0 3.839)">
    <g id="Group_7" data-name="Group 7">
      <path id="Path_3" data-name="Path 3" class="cls-1" d="M31.992,51.2H28.153v5.119a1.28,1.28,0,0,1-2.559,0V51.2H10.237v5.119a1.28,1.28,0,0,1-2.559,0V51.2H3.839A3.839,3.839,0,0,0,0,55.039V79.353a3.839,3.839,0,0,0,3.839,3.839H31.992a3.839,3.839,0,0,0,3.839-3.839V55.039A3.839,3.839,0,0,0,31.992,51.2Zm1.28,28.153a1.28,1.28,0,0,1-1.28,1.28H3.839a1.28,1.28,0,0,1-1.28-1.28V62.717H33.271Z" transform="translate(0 -51.2)"/>
    </g>
  </g>
  <g id="Group_10" data-name="Group 10" transform="translate(8.957 17.916)">
    <g id="Group_9" data-name="Group 9">
      <path id="Path_4" data-name="Path 4" class="cls-1" d="M137,239.313a1.28,1.28,0,0,0-1.81,0l-9.333,9.333-4.214-4.214a1.28,1.28,0,0,0-1.809,1.811l5.119,5.119a1.28,1.28,0,0,0,1.809,0L137,241.123A1.28,1.28,0,0,0,137,239.313Z" transform="translate(-119.463 -238.938)"/>
    </g>
  </g>
</svg>
